<svg width="289" height="293" viewBox="0 0 289 293" fill="none" xmlns="http://www.w3.org/2000/svg">
<path d="M288.291 246.398L169.002 293H0V0H288.291V246.398Z" fill="#F4FF7B"/>
<path d="M288.291 246.398L169.001 293H167.952V244.864H288.291V246.398Z" fill="#DCE672"/>
<path d="M148.5 86.5143L168.5 68.6857C178.5 59.7714 198.5 59.7714 208.5 68.6857L218.5 77.6C228.5 86.5143 228.5 104.343 218.5 113.257L168.5 157.829C158.5 166.743 138.5 166.743 128.5 157.829M128.5 193.486L108.5 211.314C98.5 220.229 78.5 220.229 68.5 211.314L58.5 202.4C48.5 193.486 48.5 175.657 58.5 166.743L108.5 122.171C118.5 113.257 138.5 113.257 148.5 122.171" stroke="#FF8C00" stroke-width="30" stroke-linecap="round" stroke-linejoin="round"/>
</svg>
