<svg width="126" height="20" viewBox="0 0 126 20" fill="none" xmlns="http://www.w3.org/2000/svg">
<path d="M7.37305 19.4458C5.9082 19.4458 4.6346 19.2383 3.55225 18.8232C2.47803 18.4082 1.63574 17.806 1.02539 17.0166C0.423177 16.2191 0.0854492 15.2629 0.012207 14.1479L0 13.9282H4.18701L4.21143 14.0503C4.28467 14.4328 4.4637 14.7664 4.74854 15.0513C5.0415 15.328 5.41992 15.5436 5.88379 15.6982C6.34766 15.8529 6.86849 15.9302 7.44629 15.9302C8.04036 15.9302 8.54899 15.8529 8.97217 15.6982C9.40348 15.5436 9.73714 15.328 9.97314 15.0513C10.2091 14.7664 10.3271 14.4409 10.3271 14.0747V14.0625C10.3271 13.5661 10.1115 13.1836 9.68018 12.915C9.24886 12.6383 8.51644 12.4023 7.48291 12.207L5.67627 11.8652C3.91846 11.5316 2.58789 10.9375 1.68457 10.083C0.789388 9.22852 0.341797 8.12174 0.341797 6.7627V6.75049C0.341797 5.6193 0.642904 4.63867 1.24512 3.80859C1.84733 2.97038 2.67334 2.3234 3.72314 1.86768C4.78109 1.40381 5.98145 1.17188 7.32422 1.17188C8.7972 1.17188 10.0505 1.3916 11.084 1.83105C12.1175 2.26237 12.915 2.87679 13.4766 3.67432C14.0381 4.4637 14.3473 5.38737 14.4043 6.44531L14.4165 6.68945H10.2539L10.2417 6.55518C10.1929 6.16455 10.0423 5.83089 9.79004 5.5542C9.53776 5.27751 9.2041 5.06592 8.78906 4.91943C8.37402 4.76481 7.89795 4.6875 7.36084 4.6875C6.81559 4.6875 6.35173 4.76481 5.96924 4.91943C5.58675 5.06592 5.29378 5.27344 5.09033 5.54199C4.89502 5.80241 4.79736 6.10352 4.79736 6.44531V6.45752C4.79736 6.92952 5.01302 7.30387 5.44434 7.58057C5.87565 7.85726 6.56331 8.08919 7.50732 8.27637L9.31396 8.61816C10.5672 8.85417 11.5967 9.18783 12.4023 9.61914C13.208 10.0505 13.8062 10.5998 14.1968 11.2671C14.5874 11.9263 14.7827 12.7279 14.7827 13.6719V13.6841C14.7827 14.856 14.4897 15.8773 13.9038 16.748C13.3179 17.6107 12.4715 18.278 11.3647 18.75C10.258 19.2139 8.92741 19.4458 7.37305 19.4458ZM21.3745 14.3311L21.3501 9.21631H21.6309L27.5391 1.50146H32.3486L26.1475 9.48486L24.8657 9.80225L21.3745 14.3311ZM17.041 19.1162V1.50146H21.521V19.1162H17.041ZM27.4292 19.1162L22.2534 10.9497L25.5249 8.06885L32.7026 19.1162H27.4292ZM34.2529 19.1162V1.50146H38.7329V8.41064H45.7397V1.50146H50.2197V19.1162H45.7397V12.0239H38.7329V19.1162H34.2529ZM60.6689 19.4458C59.1471 19.4458 57.8166 19.1772 56.6772 18.6401C55.5461 18.0949 54.6672 17.3299 54.0405 16.3452C53.4139 15.3605 53.1006 14.209 53.1006 12.8906V1.50146H57.5806V12.4634C57.5806 13.147 57.6986 13.7329 57.9346 14.2212C58.1787 14.7095 58.5286 15.0838 58.9844 15.3442C59.4482 15.6047 60.0138 15.7349 60.6812 15.7349C61.3485 15.7349 61.9141 15.6047 62.3779 15.3442C62.8418 15.0838 63.1917 14.7095 63.4277 14.2212C63.6637 13.7329 63.7817 13.147 63.7817 12.4634V1.50146H68.2617V12.8906C68.2617 14.2008 67.9484 15.3483 67.3218 16.333C66.7033 17.3177 65.8244 18.0827 64.6851 18.6279C63.5539 19.1732 62.2152 19.4458 60.6689 19.4458ZM76.1719 19.1162V1.50146H80.6519V15.5151H87.9517V19.1162H76.1719ZM89.9048 19.1162V5.78613H94.2383V19.1162H89.9048ZM92.0654 4.29688C91.4469 4.29688 90.922 4.08529 90.4907 3.66211C90.0594 3.23893 89.8438 2.73438 89.8438 2.14844C89.8438 1.55436 90.0594 1.0498 90.4907 0.634766C90.922 0.211589 91.4469 0 92.0654 0C92.6921 0 93.217 0.211589 93.6401 0.634766C94.0715 1.0498 94.2871 1.55436 94.2871 2.14844C94.2871 2.73438 94.0715 3.23893 93.6401 3.66211C93.217 4.08529 92.6921 4.29688 92.0654 4.29688ZM96.5332 19.1162V5.78613H100.867V8.09326H100.977C101.31 7.27132 101.811 6.63249 102.478 6.17676C103.153 5.72103 103.992 5.49316 104.993 5.49316C106.458 5.49316 107.585 5.93669 108.374 6.82373C109.172 7.70264 109.57 8.93555 109.57 10.5225V19.1162H105.237V11.4624C105.237 10.6974 105.058 10.0993 104.7 9.66797C104.35 9.23665 103.817 9.021 103.101 9.021C102.645 9.021 102.25 9.13086 101.917 9.35059C101.583 9.56217 101.322 9.85514 101.135 10.2295C100.956 10.6038 100.867 11.0392 100.867 11.5356V19.1162H96.5332ZM111.865 19.1162V1.35498H116.199V19.1162H111.865ZM120.239 19.1162L116.626 13.501L119.397 10.2173L125.232 19.1162H120.239ZM115.808 15.4663L115.796 10.8276H116.309L120.117 5.78613H124.939L119.019 12.9639L117.676 13.2324L115.808 15.4663Z" fill="black"/>
</svg>
